<?xml version="1.0" encoding="iso-8859-1"?>
<!-- Generator: Adobe Illustrator 16.0.0, SVG Export Plug-In . SVG Version: 6.00 Build 0)  -->
<!DOCTYPE svg PUBLIC "-//W3C//DTD SVG 1.1//EN" "http://www.w3.org/Graphics/SVG/1.1/DTD/svg11.dtd">
<svg version="1.1" id="Capa_1" xmlns="http://www.w3.org/2000/svg" xmlns:xlink="http://www.w3.org/1999/xlink" x="0px" y="0px"
	 width="553.324px" height="553.323px" viewBox="0 0 553.324 553.323" style="enable-background:new 0 0 553.324 553.323;"
	 xml:space="preserve">
<g>
	<path d="M480.594,522.055c12.373-12.488,20.951-27.32,25.79-43.06c3.06-7.229,1.635-15.94-4.332-21.841L395.42,351.642
		c-5.594-5.546-13.55-6.971-20.482-4.59l-0.067-0.067c-16.15,4.944-31.394,13.856-44.169,26.756
		c-8.577,8.664-15.377,18.466-20.34,28.889c-14.276-11.58-28.524-24.27-42.534-37.973c-13.865-13.885-59.02-59.077-70.753-73.239
		c10.385-5.077,20.13-11.944,28.707-20.617c12.766-12.9,21.506-28.229,26.249-44.475l-0.02-0.029
		c2.314-6.942,0.708-14.975-4.848-20.473L140.542,100.33c-5.977-5.91-14.697-7.258-21.907-4.103
		c-15.664,4.982-30.418,13.742-42.802,26.22c-27.913,28.219-36.596,68.248-26.23,103.839
		c11.255,51.303,84.188,149.175,145.369,210.25c0.306,0.297,0.574,0.555,0.88,0.87c0.268,0.259,0.573,0.564,0.842,0.842
		c36.213,35.506,74.31,63.858,109.997,83.452l36.356,17.222c11.887,4.695,23.313,8.263,34.005,10.48
		C412.748,559.396,452.691,550.283,480.594,522.055z"/>
	<path d="M174.23,57.853c-7.851,0-14.286,6.388-14.354,14.277c-0.019,3.825,1.454,7.439,4.16,10.165
		c2.696,2.716,6.302,4.227,10.107,4.236c21.975,0.134,42.61,8.855,58.111,24.538c15.491,15.701,23.954,36.433,23.811,58.389
		c-0.028,3.844,1.435,7.468,4.131,10.193c2.697,2.735,6.302,4.246,10.079,4.255h0.153c7.841,0,14.267-6.388,14.324-14.248
		C285.117,108.41,235.574,58.245,174.23,57.853z"/>
	<path d="M327.183,181.324h0.095c7.87,0,14.296-6.397,14.344-14.248c0.287-44.284-16.734-86.062-47.937-117.657
		C262.492,17.824,220.924,0.277,176.554,0c-7.842,0-14.277,6.388-14.344,14.229c-0.067,7.889,6.311,14.373,14.258,14.459
		c75.734,0.478,136.954,62.472,136.476,138.207C312.906,174.764,319.275,181.238,327.183,181.324z"/>
</g>
<g>
</g>
<g>
</g>
<g>
</g>
<g>
</g>
<g>
</g>
<g>
</g>
<g>
</g>
<g>
</g>
<g>
</g>
<g>
</g>
<g>
</g>
<g>
</g>
<g>
</g>
<g>
</g>
<g>
</g>
</svg>
